<?xml version="1.0" encoding="UTF-8" standalone="no"?>
<svg width="520px" height="148px" viewBox="0 0 520 148" version="1.1" xmlns="http://www.w3.org/2000/svg" xmlns:xlink="http://www.w3.org/1999/xlink">
    <!-- Generator: Sketch 39.1 (31720) - http://www.bohemiancoding.com/sketch -->
    <title>OSChina_产品logo</title>
    <desc>Created with Sketch.</desc>
    <defs></defs>
    <g id="Page-1" stroke="none" stroke-width="1" fill="none" fill-rule="evenodd">
        <g id="OSChina_产品logo" transform="translate(2.000000, 3.000000)">
            <g id="图层_1">
                <g id="Group">
                    <path d="M69.3,97.6 C54.7,97.7 42.8,88.1 42,70.2 C41.2,53.5 55.8,42.3 69.7,42 C85.7,41.6 95.3,60 95.3,60 L136.6,44.7 C136.6,44.7 119.6,0.4 73.6,0.4 C30.6,0.4 0.9,30.4 0.9,71.1 C0.9,107.3 28.9,143.4 72.6,141.8 C120.6,140 137,97.5 137,97.5 L94.6,83.4 C94.7,83.2 86,97.6 69.3,97.6" id="Shape" fill="#3DAB53"></path>
                    <path d="M69.3,97.6 C54.7,97.7 42.8,88.1 42,70.2 C41.2,53.5 55.8,42.3 69.7,42 C85.7,41.6 95.3,60 95.3,60 L136.6,44.7 C136.6,44.7 119.6,0.4 73.6,0.4 C30.6,0.4 0.9,30.4 0.9,71.1 C0.9,107.3 28.9,143.4 72.6,141.8 C120.6,140 137,97.5 137,97.5 L94.6,83.4 C94.7,83.2 86,97.6 69.3,97.6" id="Shape" stroke="#006838" stroke-width="5"></path>
                    <g transform="translate(158.000000, 101.000000)" id="Shape" fill="#000000">
                        <path d="M0.1,16 C0.1,12.7 1.4,10.3 3.9,8.8 C6,7.5 8.6,6.8 11.7,6.8 C15.1,6.8 17.9,7.6 20,9.2 C22.2,10.8 23.2,13 23.2,15.8 C23.2,18.1 22.7,19.8 21.8,21.1 C20.8,22.4 19.5,23.4 17.6,24.1 C15.8,24.8 13.8,25.2 11.6,25.2 C8.1,25.2 5.3,24.4 3.2,22.8 C1.2,21.3 0.1,19 0.1,16 L0.1,16 Z M4.4,16 C4.4,18.3 5.1,19.9 6.5,21.1 C7.9,22.2 9.6,22.8 11.7,22.8 C13.8,22.8 15.5,22.2 16.9,21.1 C18.3,20 19,18.3 19,16 C19,13.8 18.3,12.2 16.9,11.1 C15.5,10 13.8,9.4 11.7,9.4 C9.6,9.4 7.9,10 6.5,11.1 C5.1,12.1 4.4,13.8 4.4,16 L4.4,16 Z"></path>
                        <path d="M26.5,19.6 L30.6,19.1 C30.8,20.3 31.5,21.2 32.5,21.8 C33.6,22.4 35,22.7 37,22.7 C38.9,22.7 40.4,22.4 41.3,21.9 C42.2,21.3 42.7,20.7 42.7,19.9 C42.7,19.2 42.3,18.7 41.5,18.3 C40.9,18 39.5,17.7 37.2,17.3 C34.1,16.7 32,16.3 30.8,15.9 C29.6,15.5 28.7,14.9 28.1,14.2 C27.5,13.5 27.2,12.7 27.2,11.8 C27.2,11 27.5,10.3 28,9.6 C28.5,8.9 29.2,8.4 30.1,7.9 C30.8,7.6 31.6,7.3 32.8,7 C33.9,6.8 35.1,6.6 36.4,6.6 C38.3,6.6 40,6.8 41.5,7.2 C43,7.6 44,8.1 44.7,8.8 C45.4,9.5 45.9,10.4 46.1,11.5 L42,11.9 C41.8,11 41.3,10.3 40.4,9.8 C39.5,9.3 38.2,9 36.6,9 C34.7,9 33.3,9.2 32.5,9.7 C31.7,10.2 31.3,10.7 31.3,11.3 C31.3,11.7 31.5,12 31.8,12.3 C32.1,12.6 32.7,12.9 33.4,13.1 C33.8,13.2 35.1,13.5 37.1,13.9 C40.1,14.5 42.1,14.9 43.3,15.3 C44.5,15.7 45.4,16.2 46.1,16.9 C46.8,17.6 47.1,18.4 47.1,19.4 C47.1,20.4 46.7,21.3 45.9,22.2 C45.1,23.1 43.9,23.8 42.4,24.2 C40.9,24.7 39.1,24.9 37.2,24.9 C34,24.9 31.5,24.4 29.9,23.5 C28,22.9 27,21.5 26.5,19.6 L26.5,19.6 Z"></path>
                        <path d="M68.2,18.4 L72.3,18.8 C71.8,20.8 70.7,22.4 68.8,23.5 C66.9,24.6 64.7,25.2 62,25.2 C58.6,25.2 55.9,24.4 53.8,22.8 C51.7,21.2 50.7,19 50.7,16 C50.7,14.1 51.1,12.4 52,11 C52.9,9.6 54.2,8.5 56,7.8 C57.8,7.1 59.8,6.7 61.9,6.7 C64.6,6.7 66.8,7.2 68.5,8.1 C70.2,9.1 71.3,10.4 71.8,12.2 L67.7,12.6 C67.3,11.4 66.6,10.5 65.6,9.9 C64.6,9.3 63.4,9 62,9 C59.9,9 58.2,9.5 56.9,10.6 C55.6,11.7 54.9,13.4 54.9,15.7 C54.9,18.1 55.5,19.8 56.8,20.8 C58.1,21.9 59.7,22.4 61.8,22.4 C63.4,22.4 64.8,22 65.9,21.3 C67.2,21 67.9,19.9 68.2,18.4 L68.2,18.4 Z"></path>
                        <path d="M75.9,24.8 L75.9,0.5 L80.1,0.5 L80.1,9.2 C82.1,7.6 84.5,6.8 87.5,6.8 C89.3,6.8 90.9,7.1 92.3,7.6 C93.7,8.1 94.6,8.8 95.2,9.7 C95.8,10.6 96.1,11.9 96.1,13.6 L96.1,24.7 L91.9,24.7 L91.9,13.6 C91.9,12.1 91.4,11 90.5,10.3 C89.6,9.6 88.3,9.3 86.6,9.3 C85.4,9.3 84.2,9.5 83.1,10 C82,10.5 81.2,11.1 80.8,11.9 C80.3,12.7 80.1,13.8 80.1,15.1 L80.1,24.7 L75.9,24.7 L75.9,24.8 Z"></path>
                        <path d="M102.4,4 L102.4,0.6 L106.6,0.6 L106.6,4 L102.4,4 L102.4,4 Z M102.4,24.8 L102.4,7.2 L106.6,7.2 L106.6,24.8 L102.4,24.8 L102.4,24.8 Z"></path>
                        <path d="M113,24.8 L113,7.2 L116.8,7.2 L116.8,9.7 C118.6,7.8 121.2,6.8 124.7,6.8 C126.2,6.8 127.6,7 128.8,7.4 C130,7.8 131,8.3 131.6,8.9 C132.2,9.5 132.7,10.3 132.9,11.1 C133.1,11.7 133.1,12.6 133.1,14 L133.1,24.8 L128.9,24.8 L128.9,14.1 C128.9,12.9 128.7,12 128.4,11.4 C128.1,10.8 127.5,10.3 126.7,10 C125.9,9.6 124.9,9.5 123.8,9.5 C122,9.5 120.5,9.9 119.2,10.7 C117.9,11.5 117.3,13 117.3,15.3 L117.3,24.9 L113,24.9 L113,24.8 Z"></path>
                        <path d="M155.6,22.7 C154,23.6 152.6,24.3 151.1,24.7 C149.7,25.1 148.1,25.3 146.5,25.3 C143.8,25.3 141.7,24.8 140.2,23.9 C138.7,23 138,21.8 138,20.3 C138,19.4 138.3,18.7 138.8,17.9 C139.4,17.2 140.1,16.6 141,16.2 C141.9,15.8 142.9,15.4 144,15.2 C144.8,15 146.1,14.9 147.7,14.8 C151.1,14.5 153.6,14.2 155.2,13.8 L155.2,13 C155.2,11.8 154.8,10.9 154,10.4 C152.9,9.7 151.3,9.4 149.2,9.4 C147.2,9.4 145.8,9.6 144.8,10.1 C143.9,10.6 143.2,11.5 142.7,12.7 L138.6,12.3 C139,11.1 139.6,10 140.4,9.3 C141.3,8.5 142.5,7.9 144.1,7.5 C145.7,7.1 147.6,6.9 149.7,6.9 C151.8,6.9 153.5,7.1 154.8,7.4 C156.1,7.8 157.1,8.2 157.7,8.7 C158.3,9.2 158.8,9.9 159,10.7 C159.1,11.2 159.2,12.1 159.2,13.4 L159.2,17.4 C159.2,20.2 159.3,21.9 159.5,22.7 C159.7,23.4 160,24.1 160.6,24.8 L156.2,24.8 C156,24.2 155.8,23.5 155.6,22.7 L155.6,22.7 Z M155.3,16 C153.8,16.4 151.5,16.8 148.5,17.1 C146.8,17.3 145.6,17.5 144.8,17.7 C144.1,17.9 143.5,18.2 143.1,18.7 C142.7,19.1 142.5,19.6 142.5,20.1 C142.5,20.9 142.9,21.6 143.8,22.1 C144.6,22.6 145.9,22.9 147.5,22.9 C149.1,22.9 150.5,22.6 151.8,22.1 C153.1,21.6 154,20.9 154.6,20 C155.1,19.3 155.3,18.3 155.3,17 L155.3,16 L155.3,16 Z"></path>
                        <polygon points="167.2 24.8 167.2 21.4 172 21.4 172 24.8"></polygon>
                        <path d="M179.3,24.8 L179.3,7.2 L183.1,7.2 L183.1,9.7 C184.9,7.8 187.5,6.8 191,6.8 C192.5,6.8 193.9,7 195.1,7.4 C196.3,7.8 197.3,8.3 197.9,8.9 C198.5,9.5 199,10.3 199.2,11.1 C199.4,11.7 199.4,12.6 199.4,14 L199.4,24.8 L195.2,24.8 L195.2,14.1 C195.2,12.9 195,12 194.7,11.4 C194.4,10.8 193.8,10.3 193,10 C192.2,9.6 191.2,9.5 190.1,9.5 C188.3,9.5 186.8,9.9 185.5,10.7 C184.2,11.5 183.6,13 183.6,15.3 L183.6,24.9 L179.3,24.9 L179.3,24.8 Z"></path>
                        <path d="M222.7,19.2 L227,19.6 C226.3,21.4 225.1,22.8 223.2,23.8 C221.4,24.8 219,25.3 216.1,25.3 C212.5,25.3 209.6,24.5 207.5,22.9 C205.4,21.3 204.3,19.1 204.3,16.2 C204.3,13.2 205.4,10.9 207.5,9.3 C209.6,7.7 212.4,6.8 215.8,6.8 C219.1,6.8 221.8,7.6 223.9,9.2 C226,10.8 227,13.1 227,16 L227,16.8 L208.6,16.8 C208.8,18.7 209.5,20.2 210.9,21.2 C212.3,22.2 214,22.7 216.1,22.7 C217.6,22.7 218.9,22.4 220,21.8 C221.2,21.3 222.1,20.4 222.7,19.2 L222.7,19.2 Z M209,14.4 L222.8,14.4 C222.6,12.9 222.1,11.8 221.2,11.1 C219.9,10 218.1,9.4 216,9.4 C214.1,9.4 212.5,9.9 211.1,10.8 C209.8,11.6 209.1,12.8 209,14.4 L209,14.4 Z"></path>
                        <path d="M241.5,22.2 L242.1,24.8 C240.9,25 239.9,25.1 238.9,25.1 C237.4,25.1 236.2,24.9 235.4,24.6 C234.6,24.3 234,23.8 233.6,23.3 C233.3,22.7 233.1,21.6 233.1,19.8 L233.1,9.7 L230,9.7 L230,7.4 L233.1,7.4 L233.1,3 L237.3,1.2 L237.3,7.3 L241.5,7.3 L241.5,9.6 L237.3,9.6 L237.3,19.9 C237.3,20.8 237.4,21.3 237.5,21.5 C237.6,21.7 237.9,21.9 238.2,22.1 C238.5,22.2 239,22.3 239.6,22.3 C240.1,22.3 240.7,22.2 241.5,22.2 L241.5,22.2 Z"></path>
                    </g>
                    <path d="M155.5,24.9 C155.5,21.8 156.3,19.5 158,18 C159.4,16.8 161,16.1 163,16.1 C165.2,16.1 167,16.9 168.4,18.4 C169.8,19.9 170.5,22 170.5,24.6 C170.5,26.7 170.2,28.4 169.6,29.7 C169,30.9 168.1,31.9 166.9,32.6 C165.7,33.3 164.4,33.6 163.1,33.6 C160.9,33.6 159.1,32.9 157.7,31.4 C156.2,29.8 155.5,27.7 155.5,24.9 L155.5,24.9 Z M158.3,24.9 C158.3,27 158.7,28.6 159.6,29.7 C160.5,30.8 161.6,31.3 163,31.3 C164.3,31.3 165.4,30.8 166.3,29.7 C167.2,28.6 167.6,27 167.6,24.8 C167.6,22.7 167.2,21.2 166.3,20.1 C165.4,19 164.3,18.5 163,18.5 C161.7,18.5 160.5,19 159.6,20.1 C158.7,21.1 158.3,22.7 158.3,24.9 L158.3,24.9 Z" id="Shape" fill="#006838"></path>
                    <g transform="translate(173.000000, 16.000000)" id="Shape" fill="#A7A9AC">
                        <path d="M0.6,23.6 L0.6,0.5 L3.1,0.5 L3.1,2.7 C3.7,1.9 4.3,1.2 5.1,0.8 C5.8,0.4 6.7,0.2 7.7,0.2 C9.1,0.2 10.3,0.6 11.3,1.3 C12.3,2 13.1,3.1 13.6,4.4 C14.1,5.7 14.4,7.2 14.4,8.8 C14.4,10.5 14.1,12 13.5,13.4 C12.9,14.8 12.1,15.8 11,16.5 C9.9,17.2 8.7,17.6 7.5,17.6 C6.6,17.6 5.8,17.4 5.1,17 C4.4,16.6 3.8,16.1 3.3,15.5 L3.3,23.6 L0.6,23.6 L0.6,23.6 Z M3,9 C3,11.1 3.4,12.7 4.2,13.8 C5,14.8 6,15.3 7.2,15.3 C8.4,15.3 9.4,14.8 10.3,13.7 C11.2,12.6 11.6,11 11.6,8.8 C11.6,6.7 11.2,5.1 10.4,4 C9.6,2.9 8.6,2.4 7.4,2.4 C6.3,2.4 5.2,3 4.4,4.1 C3.4,5.2 3,6.8 3,9 L3,9 Z"></path>
                        <path d="M28.5,11.8 L31.3,12.2 C30.9,13.9 30,15.2 28.9,16.2 C27.7,17.1 26.2,17.6 24.4,17.6 C22.1,17.6 20.2,16.8 18.9,15.3 C17.5,13.8 16.9,11.7 16.9,9 C16.9,6.2 17.6,4 19,2.5 C20.4,0.9 22.2,0.2 24.4,0.2 C26.5,0.2 28.3,1 29.6,2.5 C30.9,4 31.6,6.2 31.6,8.9 L31.6,9.7 L19.8,9.7 C19.9,11.5 20.4,12.9 21.3,13.9 C22.2,14.9 23.3,15.4 24.6,15.4 C25.6,15.4 26.4,15.1 27.1,14.6 C27.5,13.9 28.1,13 28.5,11.8 L28.5,11.8 Z M19.6,7.3 L28.5,7.3 C28.4,5.9 28,4.8 27.5,4.1 C26.6,3 25.5,2.5 24.2,2.5 C23,2.5 21.9,2.9 21.1,3.8 C20.2,4.6 19.7,5.8 19.6,7.3 L19.6,7.3 Z"></path>
                        <path d="M34.6,17.2 L34.6,0.5 L37,0.5 L37,2.9 C38.2,1.1 39.9,0.1 42.1,0.1 C43.1,0.1 43.9,0.3 44.7,0.6 C45.5,1 46.1,1.4 46.5,2 C46.9,2.6 47.2,3.3 47.3,4.1 C47.4,4.6 47.4,5.5 47.4,6.9 L47.4,17.2 L44.7,17.2 L44.7,7 C44.7,5.8 44.6,5 44.4,4.4 C44.2,3.8 43.8,3.4 43.3,3 C42.8,2.7 42.1,2.5 41.4,2.5 C40.3,2.5 39.3,2.9 38.4,3.6 C37.6,4.4 37.2,5.8 37.2,8 L37.2,17.1 L34.6,17.1 L34.6,17.2 Z"></path>
                    </g>
                    <path d="M232.1,28.2 L234.8,27.8 C234.9,28.9 235.4,29.8 236,30.4 C236.7,31 237.6,31.3 238.9,31.3 C240.1,31.3 241.1,31 241.7,30.5 C242.3,30 242.6,29.4 242.6,28.6 C242.6,28 242.3,27.5 241.8,27.1 C241.4,26.8 240.5,26.5 239,26.1 C237,25.6 235.7,25.1 234.9,24.7 C234.1,24.3 233.6,23.8 233.2,23.1 C232.8,22.4 232.6,21.7 232.6,20.9 C232.6,20.2 232.8,19.5 233.1,18.8 C233.4,18.2 233.9,17.6 234.4,17.2 C234.8,16.9 235.4,16.6 236.1,16.4 C236.8,16.2 237.6,16.1 238.4,16.1 C239.6,16.1 240.7,16.3 241.7,16.7 C242.6,17.1 243.3,17.6 243.8,18.2 C244.2,18.8 244.6,19.7 244.7,20.8 L242.1,21.2 C242,20.3 241.6,19.7 241.1,19.2 C240.5,18.7 239.7,18.5 238.7,18.5 C237.5,18.5 236.6,18.7 236.1,19.1 C235.6,19.5 235.3,20 235.3,20.6 C235.3,21 235.4,21.3 235.6,21.6 C235.8,21.9 236.2,22.2 236.6,22.4 C236.9,22.5 237.7,22.7 239,23.1 C240.9,23.6 242.2,24.1 243,24.4 C243.8,24.7 244.3,25.2 244.8,25.9 C245.2,26.5 245.4,27.4 245.4,28.3 C245.4,29.2 245.1,30.1 244.6,31 C244.1,31.8 243.3,32.5 242.3,32.9 C241.3,33.4 240.2,33.6 238.9,33.6 C236.8,33.6 235.3,33.1 234.2,32.2 C233.1,31.3 232.4,30 232.1,28.2 L232.1,28.2 Z" id="Shape" fill="#006838"></path>
                    <g transform="translate(247.000000, 16.000000)" id="Shape" fill="#A7A9AC">
                        <path d="M0.5,8.9 C0.5,5.8 1.3,3.5 3,2 C4.4,0.8 6,0.1 8,0.1 C10.2,0.1 12,0.9 13.4,2.4 C14.8,3.9 15.5,6 15.5,8.6 C15.5,10.7 15.2,12.4 14.6,13.7 C14,14.9 13.1,15.9 11.9,16.6 C10.7,17.3 9.4,17.6 8.1,17.6 C5.9,17.6 4.1,16.9 2.7,15.4 C1.2,13.8 0.5,11.7 0.5,8.9 L0.5,8.9 Z M3.3,8.9 C3.3,11 3.7,12.6 4.6,13.7 C5.5,14.8 6.6,15.3 8,15.3 C9.3,15.3 10.4,14.8 11.3,13.7 C12.2,12.6 12.6,11 12.6,8.8 C12.6,6.7 12.2,5.2 11.3,4.1 C10.4,3 9.3,2.5 8,2.5 C6.7,2.5 5.5,3 4.6,4.1 C3.7,5.1 3.3,6.7 3.3,8.9 L3.3,8.9 Z"></path>
                        <path d="M29,17.2 L29,14.7 C27.8,16.6 26.1,17.5 24,17.5 C23.1,17.5 22.2,17.3 21.4,16.9 C20.6,16.5 20,16 19.6,15.5 C19.2,14.9 18.9,14.2 18.8,13.4 C18.7,12.8 18.6,12 18.6,10.8 L18.6,0.5 L21.3,0.5 L21.3,9.8 C21.3,11.3 21.4,12.3 21.5,12.8 C21.7,13.5 22,14.1 22.6,14.6 C23.1,15 23.8,15.2 24.6,15.2 C25.4,15.2 26.2,15 26.9,14.5 C27.6,14 28.1,13.5 28.4,12.7 C28.7,12 28.8,10.9 28.8,9.4 L28.8,0.5 L31.5,0.5 L31.5,17.2 L29,17.2 L29,17.2 Z"></path>
                        <path d="M35.5,17.2 L35.5,0.5 L37.9,0.5 L37.9,3 C38.5,1.8 39.1,1 39.6,0.7 C40.1,0.3 40.7,0.1 41.3,0.1 C42.2,0.1 43.1,0.4 44.1,1 L43.2,3.6 C42.5,3.2 41.9,3 41.2,3 C40.6,3 40.1,3.2 39.6,3.6 C39.1,4 38.8,4.5 38.6,5.1 C38.3,6.1 38.2,7.2 38.2,8.4 L38.2,17.1 L35.5,17.1 L35.5,17.2 Z"></path>
                        <path d="M56.1,11.1 L58.7,11.5 C58.4,13.4 57.7,14.9 56.5,16 C55.3,17.1 53.8,17.6 52.1,17.6 C49.9,17.6 48.2,16.9 46.9,15.4 C45.6,13.9 44.9,11.8 44.9,9 C44.9,7.2 45.2,5.6 45.8,4.3 C46.4,2.9 47.2,1.9 48.4,1.3 C49.6,0.6 50.8,0.3 52.2,0.3 C53.9,0.3 55.3,0.8 56.4,1.7 C57.5,2.6 58.2,3.9 58.5,5.6 L55.9,6 C55.7,4.9 55.2,4 54.6,3.5 C54,2.9 53.2,2.7 52.3,2.7 C50.9,2.7 49.8,3.2 49,4.2 C48.2,5.2 47.7,6.8 47.7,9 C47.7,11.2 48.1,12.9 48.9,13.9 C49.7,14.9 50.8,15.4 52.1,15.4 C53.2,15.4 54,15.1 54.7,14.4 C55.5,13.6 56,12.5 56.1,11.1 L56.1,11.1 Z"></path>
                        <path d="M72,11.8 L74.8,12.2 C74.4,13.9 73.5,15.2 72.4,16.2 C71.2,17.1 69.7,17.6 67.9,17.6 C65.6,17.6 63.7,16.8 62.4,15.3 C61,13.8 60.4,11.7 60.4,9 C60.4,6.2 61.1,4 62.5,2.5 C63.9,0.9 65.7,0.2 67.9,0.2 C70,0.2 71.8,1 73.1,2.5 C74.4,4 75.1,6.2 75.1,8.9 L75.1,9.7 L63,9.7 C63.1,11.5 63.6,12.9 64.5,13.9 C65.4,14.9 66.5,15.4 67.8,15.4 C68.8,15.4 69.6,15.1 70.3,14.6 C71,13.9 71.6,13 72,11.8 L72,11.8 Z M63.1,7.3 L72,7.3 C71.9,5.9 71.5,4.8 71,4.1 C70.1,3 69,2.5 67.7,2.5 C66.5,2.5 65.4,2.9 64.6,3.8 C63.7,4.6 63.2,5.8 63.1,7.3 L63.1,7.3 Z"></path>
                    </g>
                    <g transform="translate(332.000000, 10.000000)" id="Shape" fill="#006838">
                        <path d="M12,17.1 L14.6,17.5 C14.3,19.4 13.6,20.9 12.4,22 C11.2,23.1 9.7,23.6 8,23.6 C5.8,23.6 4.1,22.9 2.8,21.4 C1.5,19.9 0.8,17.8 0.8,15 C0.8,13.2 1.1,11.6 1.7,10.3 C2.3,8.9 3.1,7.9 4.3,7.3 C5.5,6.6 6.7,6.3 8.1,6.3 C9.8,6.3 11.2,6.8 12.3,7.7 C13.4,8.6 14.1,9.9 14.4,11.6 L11.8,12 C11.6,10.9 11.1,10 10.5,9.5 C9.9,8.9 9.1,8.7 8.2,8.7 C6.8,8.7 5.7,9.2 4.9,10.2 C4.1,11.2 3.6,12.8 3.6,15 C3.6,17.2 4,18.9 4.8,19.9 C5.6,20.9 6.7,21.4 8,21.4 C9.1,21.4 9.9,21.1 10.6,20.4 C11.4,19.6 11.8,18.5 12,17.1 L12,17.1 Z"></path>
                        <path d="M17,23.2 L17,0.2 L19.7,0.2 L19.7,8.5 C21,7 22.5,6.2 24.5,6.2 C25.7,6.2 26.7,6.4 27.6,6.9 C28.5,7.4 29.1,8.1 29.5,8.9 C29.9,9.8 30.1,11 30.1,12.6 L30.1,23.2 L27.4,23.2 L27.4,12.6 C27.4,11.2 27.1,10.2 26.5,9.5 C25.9,8.9 25.1,8.5 24,8.5 C23.2,8.5 22.5,8.7 21.7,9.2 C21,9.6 20.5,10.2 20.2,11 C19.9,11.7 19.8,12.8 19.8,14.1 L19.8,23.2 L17,23.2 L17,23.2 Z"></path>
                        <path d="M34,3.4 L34,0.1 L36.7,0.1 L36.7,3.4 L34,3.4 L34,3.4 Z M34,23.2 L34,6.5 L36.7,6.5 L36.7,23.2 L34,23.2 L34,23.2 Z"></path>
                        <path d="M40.8,23.2 L40.8,6.5 L43.2,6.5 L43.2,8.9 C44.4,7.1 46.1,6.1 48.3,6.1 C49.3,6.1 50.1,6.3 50.9,6.6 C51.7,7 52.3,7.4 52.7,8 C53.1,8.6 53.4,9.3 53.5,10.1 C53.6,10.6 53.6,11.5 53.6,12.9 L53.6,23.2 L51,23.2 L51,13 C51,11.8 50.9,11 50.7,10.4 C50.5,9.8 50.1,9.4 49.6,9 C49.1,8.7 48.4,8.5 47.7,8.5 C46.6,8.5 45.6,8.9 44.7,9.6 C43.9,10.4 43.5,11.8 43.5,14 L43.5,23.1 L40.8,23.1 L40.8,23.2 Z"></path>
                        <path d="M68.2,21.2 C67.2,22.1 66.2,22.7 65.3,23.1 C64.4,23.5 63.4,23.6 62.3,23.6 C60.6,23.6 59.2,23.2 58.3,22.3 C57.4,21.4 56.9,20.3 56.9,18.9 C56.9,18.1 57.1,17.3 57.4,16.7 C57.8,16 58.2,15.5 58.8,15.1 C59.4,14.7 60,14.4 60.7,14.2 C61.2,14.1 62,13.9 63.1,13.8 C65.3,13.5 66.9,13.2 67.9,12.8 L67.9,12.1 C67.9,10.9 67.6,10.1 67.1,9.7 C66.4,9.1 65.4,8.7 64,8.7 C62.7,8.7 61.8,8.9 61.2,9.4 C60.6,9.9 60.2,10.7 59.9,11.9 L57.3,11.5 C57.5,10.3 57.9,9.4 58.5,8.6 C59,7.9 59.8,7.3 60.9,6.9 C61.9,6.5 63.1,6.3 64.5,6.3 C65.9,6.3 67,6.5 67.8,6.8 C68.6,7.1 69.3,7.6 69.7,8.1 C70.1,8.6 70.4,9.2 70.5,10 C70.6,10.5 70.6,11.4 70.6,12.6 L70.6,16.4 C70.6,19 70.7,20.7 70.8,21.4 C70.9,22.1 71.1,22.8 71.5,23.4 L68.7,23.4 C68.5,22.6 68.3,21.9 68.2,21.2 L68.2,21.2 Z M68,14.8 C67,15.2 65.6,15.6 63.6,15.9 C62.5,16.1 61.7,16.3 61.3,16.5 C60.8,16.7 60.5,17 60.2,17.4 C60,17.8 59.8,18.3 59.8,18.7 C59.8,19.5 60.1,20.1 60.6,20.6 C61.1,21.1 61.9,21.4 63,21.4 C64,21.4 65,21.2 65.8,20.7 C66.6,20.2 67.2,19.6 67.6,18.7 C67.9,18.1 68,17.1 68,15.9 L68,14.8 L68,14.8 Z"></path>
                    </g>
                </g>
                <g id="Group" transform="translate(152.000000, 40.000000)">
                    <path d="M6.4,11.4 C5.1,11.4 4.2,11.1 3.6,10.6 C3.1,10.1 2.8,9.1 2.8,7.8 C2.8,6.6 3.1,5.8 3.6,5.3 C4.1,4.8 5.1,4.5 6.4,4.5 L53.1,4.5 C54.5,4.5 55.4,4.8 55.9,5.3 C56.4,5.8 56.6,6.7 56.6,7.8 C56.6,9.1 56.4,10 55.9,10.6 C55.4,11.1 54.5,11.4 53.1,11.4 L46.1,11.4 L46.1,28 L56.5,28 C57.9,28 58.8,28.2 59.3,28.7 C59.8,29.2 60,29.9 60,31 C60,32.2 59.8,33.1 59.3,33.7 C58.8,34.3 57.9,34.6 56.5,34.6 L46.1,34.6 L46.1,56.2 C46.1,57.6 45.7,58.5 45,59 C44.2,59.5 43.4,59.7 42.3,59.7 C41.2,59.7 40.3,59.4 39.6,58.9 C38.8,58.4 38.5,57.4 38.5,56.1 L38.5,34.5 L21.7,34.5 C21.5,37.5 21.1,40.2 20.4,42.6 C19.8,45 18.9,47.1 17.8,49 C16.7,50.9 15.4,52.7 13.8,54.2 C12.2,55.8 10.4,57.4 8.4,58.9 C7.2,59.8 6.1,60.2 5,60.1 C3.9,60 3.1,59.5 2.5,58.4 C1.8,57.3 1.5,56.4 1.8,55.5 C2.1,54.6 2.8,53.7 3.8,52.9 C5.4,51.7 6.9,50.5 8.1,49.4 C9.3,48.3 10.3,47 11.2,45.6 C12,44.2 12.7,42.6 13.2,40.8 C13.7,39 14,36.9 14.2,34.5 L4.1,34.5 C2.7,34.5 1.8,34.2 1.3,33.6 C0.8,33 0.6,32.1 0.6,30.9 C0.6,29.8 0.8,29.1 1.3,28.6 C1.8,28.1 2.7,27.9 4.1,27.9 L14.4,27.9 L14.4,11.3 L6.4,11.3 L6.4,11.4 Z M21.7,28 L38.3,28 L38.3,11.4 L21.7,11.4 L21.7,28 L21.7,28 Z" id="Shape" fill="#3CAB52"></path>
                    <path d="M75,28.4 C74.2,29.2 73.3,29.5 72.4,29.4 C71.5,29.3 70.5,28.7 69.3,27.6 C68.8,27.3 68,26.7 67.1,25.9 C66.2,25.1 65.2,24.4 64.2,23.6 C63.3,22.7 62.7,21.9 62.5,21.1 C62.3,20.3 62.6,19.4 63.4,18.2 C64.8,16.4 66.6,16.4 68.9,18 C69.7,18.7 70.7,19.4 71.7,20.2 C72.8,21 73.7,21.7 74.4,22.4 C75.3,23.3 75.9,24.2 76.2,25.2 C76.6,26.3 76.2,27.3 75,28.4 L75,28.4 L75,28.4 Z M76.5,39.4 C75.7,42.6 74.8,45.7 73.9,48.5 C73,51.4 71.8,54.2 70.4,57 C69.8,58.2 69,59 67.9,59.3 C66.8,59.6 65.8,59.5 64.9,59 C63.9,58.4 63.3,57.7 63.1,56.8 C62.9,55.9 63.2,54.6 64.1,53.1 C65.3,50.9 66.3,48.5 67.1,45.9 C67.9,43.3 68.7,40.5 69.5,37.5 C69.8,36.1 70.3,35.1 71,34.6 C71.7,34.1 72.6,33.9 73.9,34.2 C75.1,34.4 76,34.9 76.4,35.7 C76.9,36.4 77,37.7 76.5,39.4 L76.5,39.4 Z M77.6,13.9 C76.8,14.7 75.9,15 75.1,14.9 C74.2,14.8 73.2,14.2 72,13.2 C71.2,12.5 70.3,11.7 69.3,10.9 C68.3,10.1 67.5,9.4 66.9,8.9 C65.9,8.1 65.3,7.3 65.2,6.5 C65.1,5.7 65.3,4.8 66.1,3.7 C66.8,2.8 67.6,2.3 68.6,2.2 C69.6,2.1 70.6,2.5 71.6,3.3 C72.4,3.9 73,4.4 73.6,4.8 C74.2,5.3 74.6,5.7 75,6 C75.4,6.4 75.8,6.7 76.1,7 C76.4,7.3 76.8,7.6 77.2,8 C78.1,8.9 78.7,9.8 79,10.8 C79.3,11.7 78.9,12.7 77.8,13.8 L77.6,13.9 L77.6,13.9 Z M95.7,13.8 C93.6,13.8 92.2,14.3 91.4,15.2 C90.6,16.2 90.2,17.7 90.2,19.8 L90.2,33.4 C90.2,37.4 92,39.4 95.7,39.4 L101.3,39.4 L101.3,51.1 C101.3,51.7 101.2,52.1 100.9,52.3 C100.6,52.5 99.8,52.4 98.5,52 C97.1,51.6 96.1,51.5 95.5,51.8 C94.9,52.1 94.5,52.8 94.2,53.8 C93.9,55 93.9,56 94.4,56.7 C94.8,57.5 95.8,58 97.3,58.2 C99.3,58.6 101,58.8 102.2,58.8 C103.4,58.8 104.5,58.6 105.3,58 C106.1,57.5 106.6,56.6 106.9,55.5 C107.2,54.4 107.4,52.9 107.4,51 L107.4,39.3 L113,39.3 C115.1,39.3 116.6,38.9 117.4,38 C118.3,37.1 118.7,35.6 118.7,33.3 L118.7,19.7 C118.7,17.6 118.3,16 117.5,15.1 C116.7,14.1 115.3,13.7 113.3,13.7 L106.7,13.7 C106.9,13.4 107,13.2 107,13.1 C107.1,13 107.1,12.9 107.2,12.9 C107.9,11.4 107.9,10.2 107.3,9.4 L118.1,9.4 C119.4,9.4 120.2,9.2 120.7,8.7 C121.1,8.2 121.4,7.4 121.4,6.3 C121.4,5.2 121.2,4.4 120.8,3.8 C120.4,3.2 119.5,3 118.2,3 L86.2,3 C84.1,3 82.6,3.5 81.7,4.5 C80.8,5.5 80.3,7.2 80.3,9.5 L80.3,25.3 C80.3,29 80.3,32.2 80.2,34.8 C80.1,37.5 80,39.8 79.8,41.9 C79.6,43.9 79.3,45.7 78.9,47.3 C78.5,48.9 78,50.3 77.4,51.7 C77.1,52.4 76.8,53.1 76.6,53.6 C76.4,54.2 76.3,54.7 76.3,55.1 C76.3,55.6 76.4,56 76.7,56.4 C76.9,56.8 77.3,57.2 77.8,57.5 C78.7,58.1 79.6,58.3 80.4,58.1 C81.2,58 82,57.2 82.7,55.7 C83.5,53.9 84.2,52 84.7,50 C85.2,48 85.7,45.7 86,43.3 C86.3,40.8 86.5,38.2 86.6,35.2 C86.7,32.3 86.8,29 86.8,25.5 L86.8,11 C86.8,10.3 86.9,9.9 87.1,9.7 C87.3,9.5 87.5,9.4 87.8,9.4 L102,9.4 C101.9,9.6 101.8,9.7 101.8,9.9 C101.7,10 101.6,10.2 101.6,10.4 C101,11.6 100.4,12.7 99.7,13.7 L95.7,13.7 L95.7,13.8 Z M96.6,45.5 C97.1,44.2 97.3,43.2 97.2,42.4 C97.1,41.6 96.5,41.1 95.4,40.6 C94.4,40.2 93.6,40.1 93,40.5 C92.4,40.9 91.8,41.6 91.4,42.7 C91,43.8 90.6,44.8 90.3,45.6 C90,46.4 89.6,47.2 89.2,47.9 C88.8,48.6 88.4,49.3 87.9,50.1 C87.4,50.9 86.9,51.7 86.3,52.7 C85.6,53.8 85.2,54.8 85.3,55.6 C85.4,56.4 85.7,57.1 86.4,57.7 C87.3,58.4 88.1,58.6 88.9,58.3 C89.7,58 90.4,57.4 91,56.5 C92.1,54.7 93.2,52.8 94.2,51 C95.1,49.2 95.9,47.4 96.6,45.5 L96.6,45.5 Z M112.2,23.7 L96.6,23.7 L96.6,20.8 C96.6,20.3 96.7,20.1 96.8,20 C96.9,19.9 97.2,19.8 97.4,19.8 L111.2,19.8 C111.8,19.8 112.1,20.1 112.1,20.8 L112.1,23.7 L112.2,23.7 Z M112.2,32.4 C112.2,33.2 111.9,33.6 111.3,33.6 L97.5,33.6 C96.9,33.6 96.6,33.2 96.6,32.4 L96.6,29.4 L112.2,29.4 L112.2,32.4 L112.2,32.4 Z M120,51.7 C119.5,50.7 119,49.8 118.6,49.1 C118.2,48.4 117.7,47.6 117.3,46.9 C116.9,46.2 116.4,45.5 115.9,44.7 C115.4,44 114.8,43.1 114.2,42.2 C113.5,41.2 112.7,40.7 111.8,40.6 C111,40.5 110.2,40.8 109.6,41.5 C109.2,41.9 108.9,42.3 108.8,42.8 C108.7,43.2 108.6,43.7 108.7,44.1 C108.7,44.5 108.9,44.9 109,45.3 C109.2,45.7 109.4,46 109.6,46.4 C110.1,47.1 110.6,47.8 111,48.4 C111.4,49 111.8,49.7 112.3,50.4 C112.7,51.1 113.1,51.8 113.6,52.6 C114.1,53.4 114.5,54.2 115,55.2 C115.6,56.4 116.2,57.1 116.8,57.4 C117.4,57.7 118.2,57.6 119.1,57.2 C120.2,56.7 120.7,56 120.8,55.1 C121,54 120.7,52.9 120,51.7 L120,51.7 Z" id="Shape" fill="#3CAB52"></path>
                    <path d="M149.2,4 C149.2,2.6 149.5,1.7 150.1,1.2 C150.7,0.7 151.6,0.5 153,0.5 C154.3,0.5 155.2,0.7 155.8,1.2 C156.4,1.7 156.7,2.6 156.7,4 L156.7,11.7 L171.8,11.7 C173.3,11.7 174.5,11.8 175.5,11.9 C176.5,12 177.1,12.4 177.6,12.9 C178.1,13.4 178.5,14.1 178.6,15 C178.8,15.9 178.9,17.1 178.9,18.6 L178.9,37.2 C178.9,38.5 178.8,39.7 178.7,40.5 C178.5,41.4 178.2,42.1 177.7,42.6 C177.2,43.1 176.5,43.4 175.6,43.6 C174.7,43.8 173.5,43.9 171.9,43.9 L156.7,43.9 L156.7,56.5 C156.7,57.6 156.4,58.4 155.9,59 C155.4,59.6 154.4,60 153,60 C151.4,60 150.4,59.7 149.9,59.2 C149.4,58.7 149.2,57.7 149.2,56.4 L149.2,43.8 L134.4,43.8 C132.9,43.8 131.7,43.7 130.8,43.5 C129.9,43.3 129.2,42.9 128.7,42.4 C128.2,41.9 127.9,41.2 127.7,40.3 C127.5,39.4 127.5,38.3 127.5,37 L127.5,18.3 C127.5,16.9 127.6,15.8 127.7,14.9 C127.9,14 128.2,13.3 128.7,12.8 C129.2,12.3 129.9,12 130.8,11.8 C131.7,11.6 132.9,11.5 134.4,11.5 L149.2,11.5 L149.2,4 L149.2,4 Z M136.3,19 C135.7,19 135.3,19.1 135.1,19.3 C134.9,19.5 134.9,20 134.9,20.8 L134.9,34.4 C134.9,35.4 135,36 135.2,36.2 C135.4,36.4 135.8,36.5 136.5,36.5 L149.3,36.5 L149.3,19 L136.3,19 L136.3,19 Z M156.7,19 L156.7,36.6 L169.8,36.6 C170.6,36.6 171.1,36.5 171.3,36.2 C171.5,36 171.5,35.4 171.5,34.4 L171.5,20.8 C171.5,20 171.4,19.5 171.1,19.3 C170.8,19.1 170.2,19 169.3,19 L156.7,19 L156.7,19 Z" id="Shape" fill="#3CAB52"></path>
                    <path d="M241.6,51.1 C241.6,53.4 241.1,55.1 240.2,56.2 C239.3,57.3 237.6,57.8 235.1,57.8 L193.5,57.8 C191,57.8 189.4,57.3 188.5,56.2 C187.6,55.1 187.2,53.4 187.2,51.1 L187.2,9.5 C187.2,7.2 187.6,5.5 188.4,4.5 C189.2,3.5 190.9,3 193.3,3 L235.1,3 C237.6,3 239.3,3.5 240.2,4.5 C241.1,5.5 241.6,7.2 241.6,9.5 L241.6,51.1 L241.6,51.1 Z M195.4,9.6 C194.9,9.6 194.5,9.7 194.2,10 C194,10.2 193.8,10.7 193.8,11.4 L193.8,48.7 C193.8,50.4 194.5,51.2 195.9,51.2 L233.2,51.2 C233.7,51.2 234.1,51 234.4,50.5 C234.7,50 234.8,49.4 234.8,48.7 L234.8,11.4 C234.8,10.8 234.6,10.4 234.3,10.1 C234,9.8 233.4,9.7 232.5,9.7 L195.4,9.7 L195.4,9.6 Z M200.3,20.2 C198.9,20.2 197.9,20 197.4,19.5 C196.9,19 196.7,18.2 196.7,17 C196.7,15.7 196.9,14.8 197.4,14.4 C197.9,14 198.9,13.8 200.3,13.8 L228.4,13.8 C229.9,13.8 230.9,14 231.3,14.4 C231.7,14.8 232,15.7 232,17 C232,18.2 231.8,19.1 231.3,19.5 C230.8,19.9 229.8,20.1 228.4,20.1 L216.7,20.1 L216.7,25.8 L226.3,25.8 C227.7,25.8 228.7,26 229.2,26.4 C229.7,26.8 230,27.6 230,28.8 C230,30 229.7,30.8 229.2,31.2 C228.7,31.6 227.7,31.8 226.3,31.8 L225,31.8 C225.8,32.7 226.5,33.5 227.1,34.2 C227.7,34.9 228.3,35.8 229.1,36.8 C229.7,37.5 229.9,38.3 229.9,39 C229.9,39.7 229.6,40.3 229,40.9 L229.4,40.9 C230.8,40.9 231.8,41.2 232.3,41.7 C232.8,42.2 233,43.1 233,44.2 C233,45.4 232.8,46.2 232.3,46.6 C231.8,47 230.8,47.2 229.4,47.2 L199.5,47.2 C198.1,47.2 197.1,47 196.6,46.6 C196.1,46.2 195.9,45.4 195.9,44.2 C195.9,43 196.1,42.2 196.6,41.7 C197.1,41.2 198.1,40.9 199.5,40.9 L209.9,40.9 L209.9,31.8 L202,31.8 C200.5,31.8 199.5,31.6 199.1,31.2 C198.7,30.8 198.4,30 198.4,28.8 C198.4,27.6 198.6,26.8 199.1,26.4 C199.6,26 200.6,25.8 202,25.8 L209.9,25.8 L209.9,20.1 L200.3,20.1 L200.3,20.2 Z M220.5,36.6 C219.7,35.7 219.3,34.8 219.3,34.1 C219.3,33.4 219.6,32.7 220.2,32.1 L216.7,32.1 L216.7,41.2 L224.4,41.2 L224,40.8 C223.8,40.6 223.8,40.5 223.6,40.4 C223.2,39.9 222.9,39.6 222.7,39.3 C222.5,39 222.3,38.8 222.1,38.5 C221.9,38.3 221.7,38 221.5,37.7 C221.3,37.4 220.9,37 220.5,36.6 L220.5,36.6 Z" id="Shape" fill="#3CAB52"></path>
                    <path d="M263.5,56.7 C263.5,57.9 263.3,58.7 262.8,59.2 C262.3,59.7 261.3,60 259.9,60 C258.8,60 257.9,59.8 257.3,59.3 C256.6,58.8 256.3,58 256.3,56.7 L256.3,36.3 C255.7,36.8 255.2,37.4 254.6,37.9 C254,38.4 253.5,38.9 252.9,39.4 C251.7,40.5 250.5,41 249.4,41.1 C248.3,41.2 247.4,40.7 246.6,39.6 C245.9,38.7 245.7,37.9 245.9,37.1 C246.1,36.3 246.9,35.4 248.2,34.4 C251,32.2 253.5,29.9 255.6,27.6 C257.7,25.2 259.4,22.8 260.9,20.3 C261.4,19.3 261.1,18.8 260,18.8 L250.9,18.8 C249.5,18.8 248.5,18.5 248,18 C247.5,17.4 247.2,16.6 247.2,15.4 C247.2,14.3 247.5,13.4 248.1,12.9 C248.7,12.3 249.6,12 250.9,12 L257.7,12 C257.5,11.8 257.2,11.5 256.8,11 C256.1,9.9 255.4,9 254.7,8.1 C254,7.2 253.3,6.3 252.6,5.4 C252,4.7 251.8,4 251.9,3.3 C252.1,2.6 252.5,2 253.2,1.5 C254,0.9 254.9,0.7 256,0.8 C257,0.9 257.9,1.3 258.5,2.1 C258.8,2.5 259.1,2.9 259.4,3.3 C259.7,3.7 260,4.1 260.3,4.5 C260.6,4.9 261,5.4 261.4,6 C261.8,6.6 262.3,7.2 262.9,8 C263.4,8.7 263.7,9.4 263.6,10.2 C263.5,11 263.2,11.6 262.6,12 L264.2,12 C266.9,12 268.7,12.7 269.6,14.2 C270.5,15.7 270.3,17.5 269,19.7 C267.8,21.9 266.4,24.1 264.8,26.4 C266.1,27.6 267.5,28.8 268.7,30 C270,31.2 271.1,32.3 272,33.3 C273.1,34.5 273.8,35.5 273.9,36.4 C274,37.3 273.5,38.2 272.5,39.2 C270.7,40.9 268.7,40.4 266.4,37.8 C265.9,37.2 265.4,36.7 264.9,36.1 C264.4,35.6 263.9,35 263.4,34.5 L263.4,56.7 L263.5,56.7 Z M275.7,22.5 C274.3,22.5 273.4,22.2 273,21.5 C272.6,20.8 272.4,20 272.4,18.8 C272.4,17.7 272.6,16.8 273,16.2 C273.4,15.6 274.3,15.2 275.7,15.2 L283.5,15.2 L283.5,3.8 C283.5,2.5 283.8,1.6 284.5,1.1 C285.2,0.6 286,0.4 287.1,0.4 C288.2,0.4 289.1,0.7 289.7,1.2 C290.3,1.7 290.7,2.6 290.7,3.8 L290.7,15.2 L300.2,15.2 C301.5,15.2 302.3,15.5 302.8,16.2 C303.3,16.8 303.5,17.7 303.5,18.8 C303.5,19.9 303.3,20.8 302.8,21.5 C302.3,22.1 301.5,22.5 300.2,22.5 L290.7,22.5 L290.7,51.2 L302.2,51.2 C303.5,51.2 304.3,51.5 304.8,52.2 C305.3,52.8 305.5,53.7 305.5,54.8 C305.5,55.9 305.3,56.7 304.8,57.4 C304.3,58.1 303.5,58.4 302.2,58.4 L271.4,58.4 C270.1,58.4 269.2,58.1 268.8,57.6 C268.4,57.1 268.2,56.1 268.2,54.8 C268.2,53.5 268.4,52.6 268.8,52 C269.2,51.4 270.1,51.2 271.4,51.2 L283.6,51.2 L283.6,22.5 L275.7,22.5 L275.7,22.5 Z" id="Shape" fill="#000000"></path>
                    <path d="M365.5,55 C365.5,57.4 364.2,58.6 361.5,58.6 L318.7,58.6 C317.1,58.6 315.9,58.5 314.9,58.3 C313.9,58.1 313.2,57.7 312.6,57.2 C312,56.7 311.7,55.9 311.5,55 C311.3,54.1 311.2,52.9 311.2,51.4 L311.2,11.8 C311.2,10.3 311.3,9.1 311.5,8.2 C311.7,7.3 312.1,6.5 312.6,6 C313.2,5.4 313.9,5.1 314.9,4.8 C315.9,4.6 317.1,4.5 318.7,4.5 L360.7,4.5 C362.1,4.5 363,4.8 363.5,5.4 C364,6 364.2,6.9 364.2,8.1 C364.2,9.4 364,10.3 363.5,10.9 C363,11.4 362.1,11.7 360.7,11.7 L320.7,11.7 C319.9,11.7 319.3,11.8 319,12.1 C318.7,12.4 318.6,12.8 318.6,13.5 L318.6,49.7 C318.6,50.3 318.7,50.8 319,51.1 C319.3,51.4 319.8,51.6 320.7,51.6 L361.6,51.6 C363,51.6 364.1,51.9 364.7,52.4 C365.1,52.7 365.5,53.7 365.5,55 L365.5,55 Z M359.1,48 C358.2,48.8 357.3,49.2 356.6,49.2 C355.8,49.2 354.9,48.6 353.9,47.4 C352.8,46.3 351.1,44.7 349.1,42.8 C347,40.9 344.7,38.8 342.3,36.5 C341.2,37.6 340.1,38.7 339.1,39.7 C338.1,40.7 337,41.7 335.8,42.6 C334.7,43.6 333.4,44.6 332.1,45.6 C330.7,46.6 329.2,47.7 327.5,48.9 C326.6,49.5 325.8,49.8 324.8,50 C323.8,50.2 323.1,49.8 322.4,48.9 C321.8,48.1 321.5,47.2 321.5,46.2 C321.5,45.2 322.1,44.3 323,43.6 C325.5,41.9 328,40.1 330.3,38.2 C332.6,36.3 334.9,34.2 337.1,31.8 C335.7,30.6 334.4,29.4 333.2,28.4 C332,27.4 330.8,26.4 329.7,25.5 C328.6,24.6 327.5,23.7 326.5,22.9 C325.5,22.1 324.4,21.3 323.3,20.4 C322.3,19.7 321.7,18.8 321.7,17.9 C321.7,17 322,16.1 322.6,15.3 C323.4,14.4 324.3,13.9 325.2,14 C326.1,14.1 327.1,14.5 328,15.3 C329.1,16.2 330.2,17.1 331.3,18 C332.4,18.8 333.4,19.7 334.5,20.6 C335.6,21.5 336.7,22.4 337.8,23.4 C338.9,24.4 340.2,25.4 341.5,26.6 C342.4,25.5 343.2,24.5 344,23.5 C344.8,22.6 345.5,21.6 346.1,20.7 C346.8,19.8 347.4,18.8 348,17.8 C348.6,16.8 349.2,15.8 349.8,14.7 C350.4,13.6 351,12.8 351.8,12.5 C352.6,12.1 353.5,12.1 354.7,12.6 C355.6,13 356.3,13.7 356.7,14.6 C357.1,15.5 357,16.5 356.3,17.6 C355.6,18.8 355,20 354.3,21.1 C353.6,22.2 352.9,23.3 352.1,24.4 C351.3,25.5 350.5,26.6 349.6,27.7 C348.7,28.8 347.7,30 346.6,31.4 C349.2,33.7 351.5,35.8 353.5,37.7 C355.5,39.5 357.4,41.2 359.1,42.8 C360.2,43.9 360.7,44.8 360.5,45.7 C360.5,46.4 360,47.2 359.1,48 L359.1,48 Z" id="Shape" fill="#000000"></path>
                </g>
            </g>
        </g>
    </g>
</svg>